<?xml version="1.0" encoding="utf-8"?>
<!-- Generator: Adobe Illustrator 16.0.3, SVG Export Plug-In . SVG Version: 6.00 Build 0)  -->
<!DOCTYPE svg PUBLIC "-//W3C//DTD SVG 1.1//EN" "http://www.w3.org/Graphics/SVG/1.1/DTD/svg11.dtd">
<svg version="1.1" id="Layer_1" xmlns="http://www.w3.org/2000/svg" xmlns:xlink="http://www.w3.org/1999/xlink" x="0px" y="0px"
	 width="233.181px" height="54px" viewBox="0 0 233.181 54" enable-background="new 0 0 233.181 54" xml:space="preserve">
<g>
	<path fill="#EBBDC5" d="M82.791,10.65v15.384h-2.521v-9.937c0-0.397,0.021-0.826,0.063-1.287l-4.649,8.734
		c-0.22,0.419-0.557,0.628-1.011,0.628h-0.404c-0.454,0-0.791-0.209-1.011-0.628l-4.703-8.766c0.021,0.234,0.039,0.464,0.053,0.691
		s0.021,0.436,0.021,0.627v9.937h-2.521V10.65h2.16c0.128,0,0.238,0.003,0.33,0.01c0.092,0.007,0.175,0.025,0.25,0.053
		c0.074,0.029,0.142,0.075,0.202,0.139c0.06,0.063,0.119,0.149,0.175,0.255l4.607,8.543c0.12,0.227,0.232,0.461,0.335,0.702
		c0.103,0.241,0.204,0.489,0.303,0.745c0.099-0.262,0.202-0.516,0.309-0.761s0.22-0.48,0.34-0.708l4.543-8.521
		c0.057-0.106,0.117-0.192,0.181-0.255c0.064-0.064,0.133-0.11,0.208-0.139c0.074-0.028,0.158-0.046,0.25-0.053
		c0.092-0.007,0.202-0.01,0.33-0.01H82.791z"/>
	<path fill="#EBBDC5" d="M100.887,18.342c0,1.127-0.186,2.172-0.558,3.133c-0.373,0.961-0.899,1.792-1.58,2.495
		c-0.681,0.702-1.5,1.25-2.458,1.644c-0.958,0.394-2.021,0.591-3.192,0.591c-1.163,0-2.224-0.197-3.181-0.591
		c-0.958-0.394-1.778-0.941-2.463-1.644s-1.214-1.534-1.59-2.495c-0.376-0.961-0.564-2.006-0.564-3.133
		c0-1.128,0.188-2.172,0.564-3.133c0.376-0.961,0.906-1.792,1.59-2.495s1.505-1.25,2.463-1.644s2.018-0.59,3.181-0.59
		c0.78,0,1.514,0.09,2.202,0.271c0.688,0.181,1.319,0.436,1.894,0.766c0.574,0.33,1.09,0.731,1.548,1.203s0.846,0.998,1.165,1.58
		s0.562,1.213,0.729,1.894C100.804,16.874,100.887,17.59,100.887,18.342z M97.961,18.342c0-0.844-0.114-1.601-0.341-2.271
		s-0.549-1.239-0.968-1.708c-0.419-0.468-0.928-0.826-1.527-1.075c-0.6-0.248-1.275-0.372-2.027-0.372s-1.427,0.124-2.027,0.372
		c-0.599,0.249-1.11,0.606-1.532,1.075s-0.747,1.037-0.974,1.708s-0.34,1.427-0.34,2.271s0.113,1.601,0.34,2.271
		c0.227,0.67,0.552,1.238,0.974,1.702s0.933,0.821,1.532,1.069c0.6,0.248,1.275,0.372,2.027,0.372s1.427-0.124,2.027-0.372
		c0.599-0.249,1.108-0.605,1.527-1.069c0.418-0.464,0.741-1.032,0.968-1.702C97.848,19.943,97.961,19.186,97.961,18.342z"/>
	<path fill="#EBBDC5" d="M112.898,12.852h-6.617v13.182h-2.873V10.65h9.49V12.852z"/>
	<path fill="#EBBDC5" d="M127.898,10.65v15.384h-2.872v-9.639c0-0.362,0.009-0.741,0.026-1.139c0.018-0.397,0.059-0.819,0.123-1.266
		c-0.143,0.397-0.297,0.765-0.463,1.101c-0.167,0.337-0.328,0.633-0.484,0.889l-5.883,9.171c-0.064,0.106-0.14,0.212-0.229,0.319
		c-0.089,0.106-0.187,0.201-0.293,0.282c-0.106,0.082-0.223,0.149-0.351,0.202c-0.127,0.053-0.259,0.08-0.394,0.08h-2.149V10.65
		h2.873v9.639c0,0.362-0.009,0.743-0.027,1.144c-0.018,0.401-0.058,0.825-0.122,1.271c0.142-0.397,0.296-0.766,0.463-1.106
		c0.167-0.34,0.332-0.638,0.495-0.894l5.873-9.171c0.063-0.106,0.14-0.213,0.229-0.319c0.088-0.106,0.186-0.2,0.293-0.282
		c0.105-0.082,0.221-0.149,0.346-0.202c0.123-0.053,0.256-0.08,0.398-0.08H127.898z"/>
	<path fill="#EBBDC5" d="M143.73,26.034h-2.884V12.852h-4.202c-0.1,1.929-0.24,3.598-0.42,5.005
		c-0.182,1.408-0.398,2.607-0.649,3.596c-0.252,0.989-0.54,1.792-0.862,2.41s-0.676,1.098-1.059,1.441
		c-0.383,0.344-0.794,0.579-1.234,0.703c-0.439,0.124-0.9,0.186-1.383,0.186c-0.51,0-0.883-0.046-1.117-0.138
		c-0.233-0.092-0.351-0.227-0.351-0.404v-1.788h0.819c0.184,0,0.37-0.021,0.559-0.064c0.188-0.042,0.375-0.133,0.563-0.271
		s0.372-0.339,0.554-0.601c0.181-0.263,0.354-0.615,0.521-1.059c0.166-0.443,0.322-0.988,0.468-1.633
		c0.146-0.645,0.276-1.422,0.394-2.33c0.117-0.908,0.22-1.959,0.309-3.154c0.088-1.195,0.154-2.562,0.197-4.101h9.777V26.034z"/>
	<path fill="#EBBDC5" d="M158.178,26.034h-2.862v-6.362h-1.575c-0.17,0-0.334,0.016-0.494,0.048c-0.16,0.032-0.312,0.089-0.457,0.17
		c-0.146,0.082-0.289,0.191-0.432,0.33c-0.142,0.138-0.279,0.317-0.414,0.537l-2.713,4.288c-0.178,0.298-0.416,0.537-0.713,0.718
		c-0.299,0.181-0.653,0.271-1.064,0.271h-2.16l3.533-5.405c0.425-0.681,0.968-1.167,1.627-1.458
		c-0.567-0.149-1.062-0.351-1.484-0.606s-0.771-0.555-1.047-0.899c-0.277-0.344-0.482-0.727-0.617-1.149s-0.203-0.874-0.203-1.356
		c0-0.66,0.127-1.266,0.379-1.819c0.251-0.553,0.616-1.028,1.096-1.426c0.479-0.397,1.066-0.707,1.766-0.931
		c0.698-0.224,1.494-0.335,2.389-0.335h5.447V26.034z M155.315,17.438v-4.564h-2.585c-0.532,0-0.978,0.059-1.336,0.176
		c-0.357,0.117-0.645,0.278-0.861,0.484c-0.217,0.206-0.373,0.445-0.469,0.718s-0.143,0.569-0.143,0.888
		c0,0.348,0.045,0.664,0.138,0.947s0.249,0.525,0.468,0.723c0.221,0.199,0.51,0.353,0.867,0.463c0.358,0.11,0.804,0.165,1.336,0.165
		H155.315z"/>
	<path fill="#EBBDC5" d="M174.571,10.65v15.384h-2.872V19.31h-7.225v6.724h-2.872V10.65h2.872v6.617h7.225V10.65H174.571z"/>
	<path fill="#EBBDC5" d="M188.562,22.406c0.156,0,0.294,0.061,0.415,0.181l1.128,1.224c-0.624,0.773-1.393,1.366-2.304,1.777
		s-2.005,0.617-3.282,0.617c-1.142,0-2.169-0.195-3.08-0.585c-0.911-0.39-1.689-0.933-2.335-1.627
		c-0.646-0.695-1.141-1.525-1.484-2.49c-0.344-0.964-0.516-2.018-0.516-3.16c0-1.156,0.185-2.215,0.553-3.176
		c0.369-0.961,0.889-1.789,1.559-2.484c0.671-0.695,1.47-1.236,2.399-1.622c0.929-0.387,1.958-0.58,3.085-0.58
		c1.121,0,2.115,0.185,2.984,0.553s1.608,0.851,2.219,1.447l-0.958,1.33c-0.057,0.085-0.129,0.16-0.218,0.223
		c-0.089,0.064-0.211,0.096-0.367,0.096c-0.106,0-0.217-0.03-0.33-0.091c-0.113-0.06-0.237-0.134-0.372-0.223
		s-0.291-0.187-0.468-0.292c-0.178-0.106-0.384-0.204-0.617-0.293c-0.234-0.088-0.506-0.163-0.814-0.223s-0.665-0.09-1.068-0.09
		c-0.688,0-1.318,0.122-1.889,0.367c-0.571,0.245-1.062,0.6-1.474,1.064c-0.411,0.465-0.73,1.032-0.958,1.702
		c-0.227,0.67-0.34,1.435-0.34,2.293c0,0.865,0.122,1.635,0.367,2.309c0.244,0.674,0.576,1.241,0.994,1.702
		c0.419,0.461,0.911,0.814,1.479,1.059c0.567,0.245,1.177,0.367,1.829,0.367c0.391,0,0.743-0.021,1.059-0.064
		s0.606-0.11,0.873-0.202c0.266-0.092,0.518-0.211,0.755-0.356c0.237-0.145,0.474-0.324,0.708-0.537
		c0.07-0.064,0.145-0.115,0.223-0.154S188.477,22.406,188.562,22.406z"/>
	<path fill="#EBBDC5" d="M197.445,17.012c1,0,1.856,0.11,2.569,0.33s1.294,0.52,1.744,0.899s0.782,0.826,0.995,1.34
		c0.213,0.515,0.319,1.066,0.319,1.654c0,0.724-0.126,1.38-0.378,1.968c-0.252,0.589-0.619,1.094-1.102,1.516
		c-0.482,0.422-1.072,0.747-1.771,0.974c-0.698,0.227-1.494,0.34-2.388,0.34h-5.362V10.65h2.862v6.362H197.445z M197.435,23.799
		c0.531,0,0.977-0.058,1.335-0.175s0.647-0.278,0.867-0.484c0.22-0.206,0.376-0.447,0.468-0.723
		c0.092-0.277,0.139-0.575,0.139-0.894c0-0.348-0.047-0.663-0.139-0.947c-0.092-0.283-0.248-0.523-0.468-0.718
		c-0.22-0.195-0.508-0.346-0.862-0.452s-0.798-0.16-1.329-0.16h-2.511v4.553H197.435z"/>
	<path fill="#EBBDC5" d="M218.276,26.034h-2.596c-0.27,0-0.494-0.071-0.676-0.213c-0.181-0.142-0.35-0.351-0.505-0.627l-3.277-5.171
		c-0.085-0.149-0.175-0.271-0.271-0.367s-0.199-0.174-0.309-0.234c-0.11-0.06-0.234-0.101-0.373-0.122
		c-0.138-0.021-0.296-0.032-0.473-0.032h-1.713v6.767h-2.862V10.65h2.862v6.447h1.446c0.291,0,0.543-0.05,0.756-0.149
		c0.213-0.1,0.411-0.284,0.596-0.553l3.372-4.979c0.142-0.227,0.309-0.411,0.5-0.553c0.191-0.142,0.422-0.212,0.691-0.212h2.447
		l-4.181,6.17c-0.178,0.27-0.384,0.493-0.617,0.67c-0.234,0.177-0.493,0.315-0.777,0.415c0.426,0.121,0.786,0.311,1.08,0.569
		c0.295,0.259,0.576,0.616,0.846,1.069L218.276,26.034z"/>
	<path fill="#EBBDC5" d="M233.181,26.034h-2.213c-0.248,0-0.45-0.062-0.606-0.186c-0.155-0.124-0.272-0.278-0.351-0.463
		l-1.149-3.139h-6.372l-1.149,3.139c-0.057,0.163-0.167,0.312-0.33,0.447s-0.368,0.202-0.617,0.202h-2.224l6.043-15.384h2.926
		L233.181,26.034z M228.128,20.225l-1.873-5.117c-0.092-0.227-0.188-0.496-0.287-0.809c-0.1-0.312-0.198-0.649-0.298-1.011
		c-0.093,0.362-0.188,0.701-0.287,1.016c-0.1,0.316-0.195,0.59-0.287,0.825l-1.862,5.096H228.128z"/>
	<path fill="#EBBDC5" d="M82.791,36.184v15.384h-2.521v-9.937c0-0.397,0.021-0.826,0.063-1.287l-4.649,8.734
		c-0.22,0.418-0.557,0.627-1.011,0.627h-0.404c-0.454,0-0.791-0.209-1.011-0.627l-4.703-8.767c0.021,0.233,0.039,0.464,0.053,0.691
		s0.021,0.437,0.021,0.628v9.937h-2.521V36.184h2.16c0.128,0,0.238,0.004,0.33,0.01c0.092,0.008,0.175,0.025,0.25,0.054
		c0.074,0.028,0.142,0.075,0.202,0.139c0.06,0.063,0.119,0.149,0.175,0.255l4.607,8.543c0.12,0.228,0.232,0.461,0.335,0.703
		c0.103,0.24,0.204,0.488,0.303,0.744c0.099-0.262,0.202-0.516,0.309-0.761s0.22-0.48,0.34-0.708l4.543-8.521
		c0.057-0.105,0.117-0.191,0.181-0.255s0.133-0.11,0.208-0.139c0.074-0.028,0.158-0.046,0.25-0.054
		c0.092-0.006,0.202-0.01,0.33-0.01H82.791z"/>
	<path fill="#EBBDC5" d="M89.088,51.567h-2.873V36.184h2.873V51.567z"/>
	<path fill="#EBBDC5" d="M103.089,47.939c0.156,0,0.294,0.061,0.415,0.181l1.127,1.224c-0.624,0.773-1.392,1.365-2.303,1.777
		c-0.911,0.41-2.005,0.617-3.282,0.617c-1.142,0-2.168-0.195-3.08-0.586c-0.912-0.39-1.69-0.933-2.335-1.627
		c-0.646-0.695-1.14-1.525-1.484-2.49c-0.344-0.965-0.516-2.018-0.516-3.16c0-1.156,0.184-2.215,0.553-3.176
		c0.369-0.961,0.888-1.789,1.559-2.484c0.67-0.694,1.47-1.235,2.399-1.621c0.929-0.387,1.958-0.58,3.085-0.58
		c1.121,0,2.115,0.184,2.984,0.553c0.869,0.369,1.608,0.852,2.218,1.447l-0.958,1.33c-0.057,0.084-0.129,0.159-0.218,0.223
		c-0.089,0.064-0.211,0.096-0.367,0.096c-0.106,0-0.216-0.029-0.33-0.09c-0.114-0.061-0.238-0.135-0.373-0.224
		s-0.291-0.187-0.468-0.292c-0.177-0.107-0.383-0.205-0.617-0.293c-0.234-0.089-0.505-0.164-0.814-0.224s-0.665-0.091-1.069-0.091
		c-0.688,0-1.317,0.123-1.888,0.367c-0.571,0.244-1.062,0.6-1.474,1.064c-0.412,0.465-0.73,1.031-0.958,1.701
		c-0.227,0.671-0.34,1.436-0.34,2.293c0,0.865,0.122,1.635,0.367,2.309s0.576,1.242,0.995,1.703
		c0.418,0.461,0.911,0.813,1.479,1.059c0.567,0.244,1.177,0.367,1.83,0.367c0.39,0,0.743-0.021,1.059-0.064
		c0.315-0.043,0.606-0.109,0.872-0.202c0.266-0.093,0.518-0.211,0.755-0.356c0.238-0.145,0.474-0.324,0.708-0.537
		c0.071-0.064,0.146-0.115,0.224-0.154S103.004,47.939,103.089,47.939z"/>
	<path fill="#EBBDC5" d="M120.495,49.121c0.283,0,0.509,0.079,0.675,0.238c0.167,0.16,0.25,0.371,0.25,0.633v1.575h-10.554v-0.872
		c0-0.178,0.037-0.363,0.112-0.559c0.074-0.195,0.193-0.371,0.356-0.527l4.67-4.681c0.39-0.397,0.739-0.776,1.048-1.138
		c0.309-0.362,0.565-0.721,0.771-1.075c0.206-0.354,0.363-0.714,0.473-1.08c0.11-0.365,0.165-0.75,0.165-1.154
		c0-0.368-0.053-0.692-0.16-0.974c-0.106-0.279-0.257-0.516-0.452-0.707s-0.429-0.336-0.702-0.432s-0.58-0.143-0.92-0.143
		c-0.312,0-0.601,0.044-0.867,0.133c-0.266,0.088-0.502,0.213-0.708,0.372c-0.206,0.159-0.38,0.346-0.521,0.559
		c-0.142,0.213-0.249,0.446-0.319,0.702c-0.121,0.326-0.276,0.543-0.468,0.648c-0.192,0.107-0.468,0.132-0.83,0.075l-1.383-0.245
		c0.106-0.737,0.312-1.385,0.617-1.941c0.305-0.557,0.687-1.021,1.144-1.394s0.982-0.653,1.574-0.841s1.229-0.281,1.91-0.281
		c0.709,0,1.358,0.104,1.947,0.313c0.588,0.209,1.092,0.505,1.511,0.888c0.418,0.384,0.745,0.845,0.979,1.384
		c0.234,0.539,0.351,1.138,0.351,1.798c0,0.567-0.083,1.092-0.25,1.574s-0.39,0.943-0.67,1.383c-0.28,0.44-0.608,0.866-0.984,1.277
		s-0.77,0.83-1.181,1.256l-3.468,3.542c0.333-0.099,0.665-0.175,0.995-0.229c0.33-0.054,0.644-0.079,0.941-0.079H120.495z"/>
	<path fill="#EBBDC5" d="M134.207,43.875c0,1.341-0.143,2.506-0.43,3.495s-0.686,1.808-1.191,2.452
		c-0.508,0.646-1.107,1.127-1.799,1.441c-0.691,0.316-1.438,0.475-2.239,0.475s-1.544-0.158-2.229-0.475
		c-0.684-0.314-1.277-0.795-1.781-1.441c-0.504-0.645-0.897-1.463-1.182-2.452c-0.283-0.989-0.425-2.154-0.425-3.495
		c0-1.348,0.142-2.514,0.425-3.5c0.284-0.985,0.678-1.801,1.182-2.447c0.504-0.645,1.098-1.125,1.781-1.441
		c0.686-0.315,1.428-0.473,2.229-0.473s1.548,0.157,2.239,0.473c0.691,0.316,1.291,0.797,1.799,1.441
		c0.506,0.646,0.904,1.462,1.191,2.447C134.064,41.361,134.207,42.527,134.207,43.875z M131.494,43.875
		c0-1.113-0.081-2.035-0.244-2.766s-0.381-1.312-0.654-1.745s-0.587-0.735-0.941-0.909c-0.355-0.174-0.724-0.261-1.106-0.261
		c-0.376,0-0.739,0.087-1.091,0.261s-0.661,0.477-0.931,0.909s-0.483,1.015-0.644,1.745s-0.239,1.652-0.239,2.766
		s0.079,2.036,0.239,2.767s0.374,1.312,0.644,1.745c0.27,0.432,0.579,0.735,0.931,0.909s0.715,0.261,1.091,0.261
		c0.383,0,0.751-0.087,1.106-0.261c0.354-0.174,0.668-0.478,0.941-0.909c0.273-0.434,0.491-1.015,0.654-1.745
		S131.494,44.988,131.494,43.875z"/>
	<path fill="#EBBDC5" d="M145.75,49.6v1.968h-8.511V49.6h3.117v-8.969c0-0.355,0.011-0.721,0.032-1.096l-2.213,1.851
		c-0.128,0.1-0.254,0.161-0.378,0.187s-0.241,0.026-0.351,0.005c-0.11-0.021-0.208-0.058-0.293-0.111s-0.148-0.112-0.191-0.176
		l-0.83-1.138l4.691-3.99h2.16V49.6H145.75z"/>
	<path fill="#EBBDC5" d="M158.698,36.184v1.139c0,0.34-0.036,0.615-0.106,0.824s-0.142,0.385-0.213,0.526l-5.83,12.001
		c-0.121,0.248-0.291,0.459-0.511,0.633s-0.515,0.261-0.883,0.261h-1.904l5.947-11.756c0.134-0.241,0.268-0.463,0.399-0.665
		c0.131-0.202,0.277-0.396,0.441-0.58h-7.363c-0.162,0-0.305-0.061-0.425-0.181s-0.181-0.263-0.181-0.426v-1.776H158.698z"/>
</g>
<path fill="none" stroke="#EBBDC5" stroke-width="2.5" stroke-miterlimit="10" d="M17.154,36.106c0,0-2.684-1.592-5.211-4.976
	C9.326,27.63,5.214,17.86,13.277,13.853c4.771-2.373,9.604,0.072,11.657,4.768c1.481,3.387,1.615,12.32,1.615,12.32
	s0.653-9.348,1.688-12.32c1.886-5.416,6.938-7.244,11.657-4.768c7.078,3.711,3.498,14.012,2.057,16.255
	c-2.285,3.554-4.927,5.393-4.927,5.393"/>
<path fill="none" stroke="#EBBDC5" stroke-width="2.5" stroke-miterlimit="10" d="M11.767,47.416c0,0,4.48,3.547,14.786,3.547
	c5.414,0,9.541-0.255,14.562-3.29"/>
<path fill="none" stroke="#EBBDC5" stroke-width="2.5" stroke-miterlimit="10" d="M41.529,47.416c0,0-4.338-2.407-14.91-2.407
	c-7.824,0-12.732,0.919-14.853,2.407"/>
<circle fill="#EBBDC5" stroke="#EBBDC5" stroke-width="2" stroke-miterlimit="10" cx="26.622" cy="5.344" r="3.024"/>
<path fill="none" stroke="#EBBDC5" stroke-width="2.5" stroke-miterlimit="10" d="M11.943,31.131
	c2.284,3.554,5.211,4.976,5.211,4.976s3.092-19.131-9.925-14.222c-1.46,0.55-2.864,1.7-3.634,3.354
	c-0.67,1.441-0.816,3.268-0.635,5.414c0.586,6.883,5.654,13.637,8.023,16.185c0.688,0.739,3.218,1.914,3.218,1.914"/>
<path fill="none" stroke="#EBBDC5" stroke-width="2.5" stroke-miterlimit="10" d="M41.469,30.847
	c-2.286,3.554-5.375,5.26-5.375,5.26s-3.295-19.121,9.723-14.212c1.459,0.552,2.863,1.932,3.633,3.584
	c0.671,1.442,0.816,3.267,0.635,5.414c-0.604,7.085-5.793,13.61-8.075,16.049c-0.894,0.954-3.022,1.88-3.022,1.88"/>
</svg>
