<?xml version="1.0" encoding="utf-8"?>
<!-- Generator: Adobe Illustrator 19.0.0, SVG Export Plug-In . SVG Version: 6.00 Build 0)  -->
<svg version="1.1" id="Layer_1" xmlns="http://www.w3.org/2000/svg" xmlns:xlink="http://www.w3.org/1999/xlink" x="0px" y="0px"
	 viewBox="0 0 310.4 146.6" style="enable-background:new 0 0 310.4 146.6;" xml:space="preserve">
<style type="text/css">
	.st0{opacity:0.25;}
	.st1{fill:#5A5753;}
	.st2{fill:#A8120E;}
	.st3{opacity:0.1;}
	.st4{opacity:0.15;}
	.st5{fill:#A3A2A2;}
</style>
<g>
	<g class="st0">
		<path class="st1" d="M79.9,21c2.9,1.8,5.7,3.9,8.3,6.3c10.4,9.7,16,22.6,16.7,35.9c-8.2,10-20.5,16-30.5,19.8
			c1.6-4.2,4.6-13.4,6.5-24.3c1.5-8.8,2-17.1,1.4-24.5C82,29.4,81.2,25,79.9,21z"/>
	</g>
	<g>
		<path class="st2" d="M89.9,4.3c2.9,1.8,5.7,3.9,8.3,6.3c10.4,9.7,16,22.6,16.7,35.9c-8.2,10-20.5,16-30.5,19.8
			C86,62,89.1,52.8,91,41.9c1.5-8.8,2-17.1,1.4-24.5C92,12.7,91.2,8.3,89.9,4.3z"/>
	</g>
	<g>
		<path class="st2" d="M105,67.1c-0.3,12.4-4.9,24.7-13.8,34.5c-3,3.3-6.3,6.1-9.9,8.4c-12.7-2.1-24-9.9-32.3-16.7
			c4.4-0.8,13.9-2.7,24.2-6.5c8.4-3.1,15.7-6.8,21.7-11C98.8,73.2,102.2,70.2,105,67.1z"/>
	</g>
	<g class="st3">
		<path class="st1" d="M52.8,13.3c8.1,0,16.2,1.9,23.7,5.7c4.6,12.1,3.5,25.9,1.8,36.5c-2.3-2.8-6.7-7.9-12.8-13.6
			c-7.3-6.8-14.7-12.2-21.9-16.1c-5.4-2.9-10.7-4.9-15.8-6.1C35.5,15.5,44.1,13.3,52.8,13.3z"/>
	</g>
	<g>
		<path class="st2" d="M48.8,0C56.9,0,65,1.9,72.5,5.7c4.6,12.1,3.5,25.9,1.8,36.5c-2.3-2.8-6.7-7.9-12.8-13.6
			c-7.3-6.8-14.7-12.2-21.9-16.1c-5.4-2.9-10.7-4.9-15.8-6.1C31.5,2.2,40.1,0,48.8,0z"/>
	</g>
	<g class="st4">
		<path class="st1" d="M27.3,76.4c2.3,2.8,6.7,7.9,12.8,13.6c7.3,6.8,14.7,12.2,21.9,16.1c5.4,2.9,10.7,4.9,15.8,6.1
			c-7.8,4.3-16.4,6.5-25.1,6.5c-8.1,0-16.2-1.9-23.7-5.7C24.5,100.7,25.6,87,27.3,76.4z"/>
	</g>
	<g>
		<path class="st2" d="M28.7,81.7c2.3,2.8,6.7,7.9,12.8,13.6c7.3,6.8,14.7,12.2,21.9,16.1c5.4,2.9,10.7,4.9,15.8,6.1
			c-7.8,4.3-16.4,6.5-25.1,6.5c-8.1,0-16.2-1.9-23.7-5.7C25.9,106,27,92.3,28.7,81.7z"/>
	</g>
	<g>
		<path class="st2" d="M31.1,49c-1.6,4.2-4.6,13.4-6.5,24.3c-1.5,8.8-2,17.1-1.4,24.5c0.4,4.7,1.2,9.1,2.5,13.2
			c-2.9-1.8-5.7-3.9-8.3-6.3C6.9,94.9,1.3,81.9,0.6,68.7C8.8,58.7,21.1,52.8,31.1,49z"/>
	</g>
	<g>
		<path class="st2" d="M24.3,21.8c12.7,2.1,24,9.9,32.3,16.7c-4.4,0.8-13.9,2.7-24.2,6.5c-8.4,3.1-15.7,6.8-21.7,11
			c-3.9,2.7-7.2,5.6-10.1,8.7c0.3-12.4,4.9-24.7,13.8-34.5C17.4,27,20.7,24.2,24.3,21.8z"/>
	</g>
	<g>
		<g>
			<path class="st2" d="M128.2,41.3c-4,0-7.3-3.3-7.3-7.3h3.7c0,2,1.6,3.7,3.6,3.7c2,0,3.7-1.6,3.7-3.7v-1.9c0-2.1-1.6-3.7-3.6-3.7
				c-4.1,0-7.3-3.3-7.3-7.3c0-4,3.2-7.3,7.3-7.3c4,0,7.3,3.3,7.3,7.3h-3.7c0-2-1.6-3.7-3.6-3.7c-2,0-3.7,1.6-3.7,3.7
				c0,2.1,1.7,3.7,3.7,3.7c4.1,0,7.3,3.3,7.3,7.3v1.9C135.6,38,132.3,41.3,128.2,41.3z"/>
			<path class="st2" d="M144.9,41.6c-4.1,0-7.3-3.3-7.3-7.3c0-2.1,0-13.6,0-13.6c0-4.1,3.3-7.3,7.3-7.3c4.1,0,7.3,3.3,7.3,7.3h-3.6
				c0-2-1.7-3.7-3.7-3.7c-2,0-3.7,1.7-3.7,3.7c0,2,0,13.6,0,13.6c0,2,1.7,3.7,3.7,3.7c2,0,3.6-1.7,3.6-3.7h3.7
				C152.2,38.4,148.9,41.6,144.9,41.6z"/>
			<path class="st2" d="M165.6,41.3V28.4h-7.2v12.8h-3.6V13.7h3.6v11.1h7.2V13.7h3.6v27.6H165.6z"/>
			<path class="st2" d="M179.2,41.6c-4.1,0-7.3-3.3-7.3-7.3c0-2.1,0-13.6,0-13.6c0-4.1,3.3-7.3,7.3-7.3c4.1,0,7.3,3.3,7.3,7.3v13.6
				C186.5,38.4,183.3,41.6,179.2,41.6z M182.9,20.7c0-2-1.7-3.7-3.7-3.7c-2,0-3.7,1.7-3.7,3.7c0,2,0,13.6,0,13.6
				c0,2,1.7,3.7,3.7,3.7c2,0,3.6-1.7,3.6-3.7L182.9,20.7z"/>
			<path class="st2" d="M196.5,41.6c-4.1,0-7.3-3.3-7.3-7.3c0-2.1,0-13.6,0-13.6c0-4.1,3.3-7.3,7.3-7.3c4.1,0,7.3,3.3,7.3,7.3v13.6
				C203.8,38.4,200.5,41.6,196.5,41.6z M200.1,20.7c0-2-1.7-3.7-3.7-3.7c-2,0-3.7,1.7-3.7,3.7c0,2,0,13.6,0,13.6
				c0,2,1.7,3.7,3.7,3.7c2,0,3.7-1.7,3.7-3.7L200.1,20.7z"/>
			<path class="st2" d="M206.4,41.3V13.7h3.7v23.9h8.5v3.7H206.4z"/>
			<path class="st2" d="M236.4,41.6c-4.1,0-7.3-3.3-7.3-7.3c0-2.1,0-13.6,0-13.6c0-4.1,3.3-7.3,7.3-7.3c4.1,0,7.3,3.3,7.3,7.3v13.6
				C243.7,38.4,240.4,41.6,236.4,41.6z M240,20.7c0-2-1.7-3.7-3.7-3.7c-2,0-3.7,1.7-3.7,3.7c0,2,0,13.6,0,13.6c0,2,1.7,3.7,3.7,3.7
				c2,0,3.7-1.7,3.7-3.7L240,20.7z"/>
			<path class="st2" d="M250,17.4v7.3h8.4v3.6H250v12.9h-3.7V13.7h13v3.7H250z"/>
		</g>
		<g>
			<path class="st2" d="M135.9,79.7v-19l-5.5,9.5l-5.5-9.5v19h-3.7V52.2h3l6.2,10.7l6.2-10.7h3v27.6H135.9z"/>
			<path class="st2" d="M149.5,80.1c-4.1,0-7.3-3.3-7.3-7.3c0-2.1,0-13.6,0-13.6c0-4.1,3.3-7.3,7.3-7.3c4.1,0,7.3,3.3,7.3,7.3v13.6
				C156.8,76.8,153.5,80.1,149.5,80.1z M153.2,59.1c0-2-1.7-3.7-3.7-3.7c-2,0-3.7,1.7-3.7,3.7c0,2,0,13.6,0,13.6
				c0,2,1.7,3.7,3.7,3.7c2,0,3.6-1.7,3.6-3.7L153.2,59.1z"/>
			<path class="st2" d="M165.9,79.7h-6.5V52.2h6.5c6.4,0,8.2,8.4,8.2,13.4C174.1,70.6,172.3,79.7,165.9,79.7z M165.9,55.8l-2.8,0V76
				h2.8c3.9,0,4.6-7.7,4.6-10.4S169.8,55.8,165.9,55.8z"/>
			<path class="st2" d="M188.7,79.7h-12.2V52.2h12.2v3.7h-8.6v7.3h7.6v3.6h-7.6V76h8.6V79.7z"/>
			<path class="st2" d="M201.1,67.8l4.2,11.9h-4.1l-4-11h-2.6v11H191V52.2h6.4c4.6,0,8.3,3.7,8.3,8.2
				C205.7,63.7,203.9,66.5,201.1,67.8z M202.1,60.4c0-2.5-2.1-4.6-4.6-4.6h-2.8V65h2.7C200,65,202,63,202.1,60.4L202.1,60.4z"/>
			<path class="st2" d="M220.3,79.7l-8.6-17.6v17.6h-3.7V52.2h2.9l8.6,17.4V52.2h3.7v27.6H220.3z"/>
		</g>
		<g>
			<path class="st2" d="M127.6,107.1h-2.8v11h-3.7V90.6h6.4c4.6,0,8.3,3.7,8.3,8.2C135.8,103.4,132.1,107.1,127.6,107.1z
				 M132.2,98.9c0-2.5-2.1-4.6-4.6-4.6h-2.8v9.2h2.7C130.1,103.5,132.1,101.4,132.2,98.9L132.2,98.9z"/>
			<path class="st2" d="M149,118.1v-12.8h-7.2v12.8h-3.6V90.6h3.6v11.1h7.2V90.6h3.6v27.6H149z"/>
			<path class="st2" d="M162.6,118.5c-4.1,0-7.3-3.3-7.3-7.3c0-2.1,0-13.6,0-13.6c0-4.1,3.3-7.3,7.3-7.3s7.3,3.3,7.3,7.3v13.6
				C169.9,115.3,166.7,118.5,162.6,118.5z M166.3,97.5c0-2-1.7-3.7-3.7-3.7s-3.7,1.7-3.7,3.7c0,2,0,13.6,0,13.6c0,2,1.7,3.7,3.7,3.7
				s3.6-1.7,3.6-3.7L166.3,97.5z"/>
			<path class="st2" d="M181.6,94.3v23.9h-3.7V94.3h-5.8v-3.7h15.3v3.7H181.6z"/>
			<path class="st2" d="M196.8,118.5c-4.1,0-7.3-3.3-7.3-7.3c0-2.1,0-13.6,0-13.6c0-4.1,3.3-7.3,7.3-7.3c4.1,0,7.3,3.3,7.3,7.3v13.6
				C204.2,115.3,200.9,118.5,196.8,118.5z M200.5,97.5c0-2-1.7-3.7-3.7-3.7c-2,0-3.7,1.7-3.7,3.7c0,2,0,13.6,0,13.6
				c0,2,1.7,3.7,3.7,3.7c2,0,3.6-1.7,3.6-3.7L200.5,97.5z"/>
			<path class="st2" d="M213.9,118.5c-4,0-7.3-3.3-7.3-7.3V97.5c0-4,3.3-7.3,7.3-7.3s7.3,3.3,7.3,7.3h-3.6c0-2-1.7-3.7-3.7-3.7
				c-2,0-3.6,1.7-3.6,3.7v13.6c0,2,1.6,3.6,3.6,3.6c2,0,3.7-1.6,3.7-3.6v-2.3h-4.7v-3.6h8.4v5.9
				C221.2,115.2,217.9,118.5,213.9,118.5z"/>
			<path class="st2" d="M233.7,106.2l4.2,11.9h-4.1l-4-11h-2.6v11h-3.7V90.6h6.4c4.6,0,8.3,3.7,8.3,8.2
				C238.3,102.1,236.4,104.9,233.7,106.2z M234.6,98.9c0-2.5-2.1-4.6-4.6-4.6h-2.8v9.2h2.7C232.5,103.5,234.6,101.4,234.6,98.9
				L234.6,98.9z"/>
			<path class="st2" d="M253.8,118.1l-1.6-7.3h-6.7l-1.6,7.3h-3.8l6-27.6h5.4l6,27.6H253.8z M248.9,95.6l-2.5,11.6h5.1L248.9,95.6z"
				/>
			<path class="st2" d="M266.1,107.1h-2.8v11h-3.7V90.6h6.4c4.6,0,8.3,3.7,8.3,8.2C274.4,103.4,270.7,107.1,266.1,107.1z
				 M270.7,98.9c0-2.5-2.1-4.6-4.6-4.6h-2.8v9.2h2.7C268.6,103.5,270.7,101.4,270.7,98.9L270.7,98.9z"/>
			<path class="st2" d="M287.6,118.1v-12.8h-7.2v12.8h-3.7V90.6h3.7v11.1h7.2V90.6h3.6v27.6H287.6z"/>
			<path class="st2" d="M303.2,108.3v6.2h1.9v3.7h-7.3v-3.7h1.8v-6.2l-6.5-17.7h3.9l4.5,12.2l5-12.2h4L303.2,108.3z"/>
		</g>
	</g>
	<g>
		<rect x="207.2" y="137.6" class="st5" width="102" height="2"/>
		<path class="st5" d="M106.5,138.5c-0.3-0.3-0.6-0.6-0.9-0.9H1.8v2H105l0.1-0.2l2.3-0.2C107.1,139,106.8,138.8,106.5,138.5z"/>
		<path class="st5" d="M120.4,138.8c-0.3-0.5-0.7-0.9-1.1-1.2c-0.2-0.2-0.5-0.3-0.7-0.5c-0.8-0.4-2-0.8-3.7-1.2
			c-1.7-0.4-2.7-0.8-3.1-1.1c-0.3-0.3-0.5-0.6-0.5-1c0-0.4,0.2-0.8,0.5-1c0.6-0.4,1.3-0.6,2.3-0.6c1,0,1.7,0.2,2.2,0.6
			c0.5,0.4,0.8,1,0.9,1.8l3.4-0.1c0-0.7-0.2-1.3-0.4-1.9l0,0v-0.1c-0.3-0.6-0.7-1.2-1.2-1.7c-1.1-0.9-2.7-1.4-4.8-1.4
			c-1.3,0-2.4,0.2-3.3,0.6c-0.9,0.4-1.6,0.9-2.1,1.7c-0.5,0.7-0.7,1.5-0.7,2.4c0,1.3,0.5,2.4,1.6,3.3c0.1,0.1,0.2,0.1,0.3,0.2
			c0.8,0.6,1.9,1,3.6,1.4c1,0.2,1.7,0.4,2.2,0.6c0.2,0.1,0.4,0.1,0.6,0.2c0.6,0.2,1,0.4,1.2,0.7c0.2,0.3,0.4,0.6,0.4,1
			c0,0.6-0.3,1.1-0.8,1.6c-0.6,0.5-1.4,0.7-2.5,0.7c-1,0-1.9-0.3-2.5-0.8c-0.6-0.5-1-1.3-1.2-2.4l-3.3,0.3c0.2,1.9,0.9,3.3,2.1,4.2
			c1.1,1,2.8,1.5,4.9,1.5c1.5,0,2.7-0.2,3.7-0.6c1-0.4,1.7-1,2.3-1.9c0.5-0.8,0.8-1.7,0.8-2.7c0-0.7-0.1-1.3-0.3-1.9
			C120.7,139.3,120.5,139.1,120.4,138.8z"/>
		<polygon class="st5" points="135.1,129.7 121.6,129.7 121.6,132.1 121.6,132.5 121.8,132.5 126.7,132.5 126.7,137.6 126.7,139.6 
			126.7,146.3 130.1,146.3 130.1,139.6 130.1,137.6 130.1,132.5 135.1,132.5 		"/>
		<path class="st5" d="M147.3,137.6v1.3c0,0.3,0,0.5,0,0.7c0,0.9-0.1,1.7-0.1,2.1c-0.1,0.6-0.4,1-0.9,1.4c-0.5,0.4-1.2,0.6-2.2,0.6
			c-1,0-1.7-0.2-2.3-0.6c-0.5-0.4-0.9-1-1-1.6c-0.1-0.3-0.1-1-0.1-1.9c0-0.3,0-0.6,0-0.9v-1.1v-7.9h-3.4v7.9v1c0,0.4,0,0.7,0,1
			c0,1.3,0.1,2.4,0.3,3.2c0.2,0.6,0.5,1.3,1,1.8c0.5,0.6,1.1,1.1,2,1.4c0.8,0.4,2.1,0.5,3.7,0.5c1.3,0,2.4-0.2,3.3-0.5
			c0.8-0.3,1.5-0.8,2-1.4c0.5-0.6,0.8-1.3,1-2.1c0.1-0.7,0.2-1.7,0.3-3.1c0-0.4,0-0.8,0-1.2v-0.8v-7.9h-3.4V137.6z"/>
		<path class="st5" d="M167.4,134.2c-0.4-1.1-0.9-2-1.6-2.7c-0.7-0.7-1.6-1.2-2.6-1.5c-0.7-0.2-1.8-0.3-3.2-0.3h-6.2v7.9v2v6.7h6.4
			c1.3,0,2.3-0.1,3-0.4c1-0.3,1.8-0.8,2.4-1.3c0.8-0.7,1.4-1.7,1.8-2.9c0.2-0.6,0.4-1.3,0.4-2.1c0-0.5,0.1-0.9,0.1-1.4
			c0-0.2,0-0.4,0-0.6C167.9,136.3,167.8,135.2,167.4,134.2z M164.1,141.1c-0.2,0.7-0.5,1.3-0.9,1.6c-0.4,0.3-0.8,0.6-1.4,0.7
			c-0.4,0.1-1.1,0.2-2.1,0.2h-2.6v-3.9v-2v-5.1h1.5c1.4,0,2.3,0.1,2.8,0.2c0.6,0.1,1.2,0.4,1.6,0.8c0.4,0.4,0.7,0.9,1,1.6
			c0.2,0.6,0.3,1.5,0.3,2.5c0,0.1,0,0.3,0,0.4c0,0.6,0,1.1-0.1,1.6C164.3,140.2,164.2,140.7,164.1,141.1z"/>
		<polygon class="st5" points="170.8,137.6 170.8,139.6 170.8,146.3 174.2,146.3 174.2,139.6 174.2,137.6 174.2,129.7 170.8,129.7 
					"/>
		<path class="st5" d="M190.9,131.7c-1.5-1.5-3.5-2.3-6-2.3c-1.4,0-2.6,0.2-3.6,0.7c-0.8,0.3-1.5,0.8-2.2,1.5
			c-0.7,0.7-1.2,1.4-1.6,2.3c-0.5,1-0.7,2.3-0.8,3.8c0,0.2,0,0.3,0,0.5c0,0.5,0,1,0.1,1.5c0.2,1.9,0.9,3.5,2.1,4.7
			c1.5,1.5,3.5,2.3,6,2.3c2.5,0,4.5-0.8,6-2.3c1.2-1.2,1.9-2.8,2.1-4.7c0.1-0.5,0.1-1,0.1-1.6c0-0.1,0-0.3,0-0.4
			C193.1,135.1,192.3,133.1,190.9,131.7z M188.3,142.3c-0.9,1-2,1.4-3.4,1.4c-1.4,0-2.5-0.5-3.4-1.5c-0.6-0.7-1-1.6-1.2-2.7
			c-0.1-0.5-0.1-1-0.1-1.6c0-0.1,0-0.3,0-0.4c0.1-1.7,0.5-3,1.3-3.9c0.9-0.9,2-1.4,3.4-1.4c1.4,0,2.5,0.5,3.4,1.4
			c0.8,0.9,1.2,2.2,1.3,3.9c0,0.1,0,0.2,0,0.4c0,0.6-0.1,1.1-0.1,1.6C189.3,140.7,188.9,141.6,188.3,142.3z"/>
		<path class="st5" d="M199.5,132.3c-1.1,0.9-3.2,0.9-3.8,0.9c-0.1,0-0.2,0-0.2,0v2.9l4.8,0v1.4v2v6.7h3.3v-6.7v-2v-8H201
			C200.6,130.6,200.8,131.3,199.5,132.3z"/>
	</g>
</g>
</svg>
