<?xml version="1.0" encoding="utf-8"?>
<svg width="30" height="30" version="1.1" xmlns="http://www.w3.org/2000/svg" xmlns:xlink="http://www.w3.org/1999/xlink" x="0px" y="0px"
	 viewBox="-16.3 117.1 258.8 258.8" style="enable-background:new -16.3 117.1 258.8 258.8;" xml:space="preserve">
<g>
	<path d="M235.7,161.7c-3.3-8.5-7.7-15.7-14.9-22.9c-7.2-7.2-14.4-11.6-22.9-14.9c-8.2-3.2-17.7-5.4-31.4-6
		c-13.8-0.6-18.2-0.8-53.4-0.8s-39.6,0.1-53.4,0.8c-13.8,0.6-23.2,2.8-31.4,6c-8.5,3.3-15.7,7.7-22.9,14.9s-11.6,14.4-14.9,22.9
		c-3.2,8.2-5.4,17.7-6,31.4c-0.6,13.8-0.8,18.2-0.8,53.4s0.1,39.6,0.8,53.4c0.6,13.8,2.8,23.2,6,31.4c3.3,8.5,7.7,15.7,14.9,22.9
		c7.2,7.2,14.4,11.6,22.9,14.9c8.2,3.2,17.7,5.4,31.4,6c13.8,0.6,18.2,0.8,53.4,0.8s39.6-0.1,53.4-0.8c13.8-0.6,23.2-2.8,31.4-6
		c8.5-3.3,15.7-7.7,22.9-14.9c7.2-7.2,11.6-14.4,14.9-22.9c3.2-8.2,5.4-17.7,6-31.4c0.6-13.8,0.8-18.2,0.8-53.4s-0.1-39.6-0.8-53.4
		C241.1,179.3,238.9,169.9,235.7,161.7z M218.4,298.8c-0.6,12.6-2.7,19.5-4.5,24c-2.3,6-5.2,10.4-9.7,14.9s-8.8,7.3-14.9,9.7
		c-4.6,1.8-11.4,3.9-24,4.5c-13.7,0.6-17.7,0.8-52.3,0.8s-38.7-0.1-52.3-0.8c-12.6-0.6-19.5-2.7-24-4.5c-6-2.3-10.4-5.2-14.9-9.7
		s-7.3-8.8-9.7-14.9c-1.8-4.6-3.9-11.4-4.5-24C7,285.1,6.8,281,6.8,246.5s0.1-38.7,0.8-52.3c0.6-12.6,2.7-19.5,4.5-24
		c2.3-6,5.2-10.4,9.7-14.9s8.8-7.3,14.9-9.7c4.6-1.8,11.4-3.9,24-4.5c13.7-0.6,17.8-0.8,52.3-0.8s38.7,0.1,52.3,0.8
		c12.6,0.6,19.5,2.7,24,4.5c6,2.3,10.4,5.2,14.9,9.7s7.3,8.8,9.7,14.9c1.8,4.6,3.9,11.4,4.5,24c0.6,13.7,0.8,17.8,0.8,52.3
		S219,285.2,218.4,298.8z"/>
	<path d="M113,180c-36.7,0-66.5,29.8-66.5,66.5S76.3,313,113,313s66.5-29.8,66.5-66.5S149.7,180,113,180z
		 M113,289.7c-23.8,0-43.2-19.3-43.2-43.2c0-23.8,19.3-43.2,43.2-43.2s43.2,19.3,43.2,43.2C156.2,270.3,136.8,289.7,113,289.7z"/>
	<circle cx="182.1" cy="177.4" r="15.5"/>
</g>
</svg>
